<svg width="22" height="22" viewBox="0 0 22 22" fill="none" xmlns="http://www.w3.org/2000/svg">
<path d="M11.2115 2.50318C11.2115 2.13322 10.9116 1.83331 10.5416 1.83331C10.1717 1.83331 9.87178 2.13322 9.87178 2.50318V13.945C9.58359 13.6526 9.24098 13.222 8.7424 12.5932L7.4939 11.0186C7.26404 10.7287 6.84271 10.6801 6.55281 10.9099C6.26292 11.1398 6.21425 11.5611 6.4441 11.851L7.71797 13.4576C8.19419 14.0582 8.58716 14.5539 8.93888 14.907C9.29982 15.2693 9.70043 15.5697 10.2124 15.6512C10.3214 15.6686 10.4314 15.6773 10.5416 15.6773C10.6519 15.6773 10.7619 15.6686 10.8709 15.6512C11.3829 15.5697 11.7835 15.2693 12.1444 14.907C12.4961 14.5539 12.8891 14.0582 13.3653 13.4576L14.6392 11.851C14.869 11.5611 14.8204 11.1398 14.5305 10.9099C14.2406 10.6801 13.8193 10.7287 13.5894 11.0186L12.3409 12.5932C11.8423 13.222 11.4997 13.6526 11.2115 13.945V2.50318Z" fill="white"/>
<path d="M18.2229 9.24617C18.0007 8.95036 17.5808 8.89069 17.285 9.11287C16.9892 9.33506 16.9295 9.75498 17.1517 10.0508C17.6281 10.6852 17.9102 11.4727 17.9102 12.328V13.2211C17.9102 14.0765 17.9082 14.4262 17.8635 14.7081C17.6062 16.3324 16.3324 17.6062 14.7081 17.8635C14.4262 17.9082 14.0765 17.9102 13.2211 17.9102H7.86216C7.00681 17.9102 6.65713 17.9082 6.37518 17.8635C4.75093 17.6062 3.47705 16.3324 3.2198 14.7081C3.17514 14.4262 3.17306 14.0765 3.17306 13.2211V12.328C3.17306 11.4727 3.45515 10.6852 3.93163 10.0508C4.15382 9.75498 4.09414 9.33506 3.79834 9.11287C3.50253 8.89069 3.08261 8.95036 2.86042 9.24617C2.21565 10.1046 1.83332 11.1726 1.83332 12.328L1.83332 13.2933C1.83326 14.0543 1.83322 14.5178 1.89655 14.9177C2.2446 17.1152 3.96808 18.8387 6.1656 19.1867C6.56545 19.2501 7.029 19.25 7.78999 19.25H13.2933C14.0543 19.25 14.5178 19.2501 14.9177 19.1867C17.1152 18.8387 18.8387 17.1152 19.1867 14.9177C19.2501 14.5178 19.25 14.0543 19.25 13.2933L19.25 12.328C19.25 11.1726 18.8676 10.1046 18.2229 9.24617Z" fill="white"/>
</svg>
