<svg width="30" height="30" viewBox="0 0 30 30" fill="none" xmlns="http://www.w3.org/2000/svg">
<ellipse cx="15" cy="14.9675" rx="14.6484" ry="7.70187" fill="url(#paint0_radial_16_19)"/>
<ellipse cx="15" cy="14.9676" rx="14.0762" ry="7.12967" fill="#6181B6"/>
<path fill-rule="evenodd" clip-rule="evenodd" d="M17.8496 17.2792L18.5477 13.6858C18.7079 12.8732 18.5706 12.2667 18.1586 11.889C17.758 11.5228 17.0714 11.3397 16.0643 11.3397H14.8512L15.1946 9.55444C15.206 9.48578 15.1946 9.41711 15.1488 9.35989C15.103 9.30267 15.0458 9.27979 14.9771 9.27979H13.3063C13.1918 9.27979 13.1003 9.35989 13.0774 9.46289L12.3335 13.2738C12.2649 12.8389 12.1047 12.4727 11.83 12.1751C11.3379 11.6144 10.5711 11.3283 9.52973 11.3283H6.31394C6.1995 11.3283 6.10795 11.4084 6.08506 11.5114L4.58588 19.2476C4.57444 19.3163 4.58588 19.3849 4.63166 19.4421C4.67744 19.4994 4.73466 19.5222 4.80332 19.5222H6.4856C6.60004 19.5222 6.6916 19.4421 6.71449 19.3391L7.0807 17.4738H8.3281C8.98042 17.4738 9.54118 17.4051 9.96461 17.2678C10.4109 17.119 10.8115 16.8787 11.1662 16.5468C11.4523 16.2836 11.6927 15.986 11.8758 15.6656L11.5782 17.2105C11.5668 17.2792 11.5782 17.3479 11.624 17.4051C11.6698 17.4623 11.727 17.4852 11.7957 17.4852H13.4665C13.5809 17.4852 13.6725 17.4051 13.6954 17.3021L14.5194 13.0678H15.6638C16.1559 13.0678 16.2932 13.1593 16.339 13.2051C16.3733 13.2394 16.442 13.3768 16.3619 13.8002L15.6981 17.222C15.6867 17.2906 15.6981 17.3593 15.7439 17.4165C15.7896 17.4738 15.8469 17.4966 15.9155 17.4966H17.6321C17.7351 17.4623 17.8267 17.3822 17.8496 17.2792ZM10.1134 14.3037C10.0104 14.8416 9.81583 15.2307 9.52973 15.4482C9.24363 15.6656 8.77442 15.78 8.15644 15.78H7.41257L7.95045 13.0106H8.91175C9.62128 13.0106 9.90739 13.1593 10.0218 13.2852C10.1706 13.4683 10.2049 13.8231 10.1134 14.3037Z" fill="white"/>
<path fill-rule="evenodd" clip-rule="evenodd" d="M24.9907 12.1751C24.4986 11.6143 23.7318 11.3282 22.6904 11.3282H19.4518C19.3373 11.3282 19.2458 11.4084 19.2229 11.5114L17.7237 19.2361C17.7123 19.3048 17.7237 19.3734 17.7695 19.4307C17.8153 19.4879 17.8725 19.5108 17.9411 19.5108H19.6234C19.7379 19.5108 19.8294 19.4307 19.8523 19.3277L20.2185 17.4623H21.4659C22.1182 17.4623 22.679 17.3936 23.1024 17.2563C23.5487 17.1075 23.9493 16.8672 24.3041 16.5353C24.6016 16.2607 24.8534 15.9517 25.0365 15.6198C25.2196 15.2879 25.3569 14.9217 25.437 14.5211C25.6316 13.5255 25.4828 12.7473 24.9907 12.1751ZM23.2397 14.3037C23.1367 14.8416 22.9422 15.2307 22.6561 15.4481C22.37 15.6656 21.9008 15.78 21.2828 15.78H20.5389L21.0768 13.0105H22.0381C22.7477 13.0105 23.0338 13.1593 23.1482 13.2852C23.3084 13.4683 23.3427 13.8231 23.2397 14.3037Z" fill="white"/>
<path fill-rule="evenodd" clip-rule="evenodd" d="M8.91174 12.7816C9.55261 12.7816 9.97604 12.8961 10.1935 13.1364C10.4109 13.3767 10.4567 13.7773 10.3423 14.3495C10.2278 14.9446 9.99893 15.3795 9.66705 15.6312C9.33517 15.883 8.83163 16.0089 8.15643 16.0089H7.13791L7.76733 12.7816H8.91174ZM4.81476 19.2819H6.49704L6.89758 17.2334H8.33954C8.98041 17.2334 9.49539 17.1647 9.90738 17.0274C10.3194 16.8901 10.6856 16.6726 11.0289 16.3522C11.315 16.089 11.5439 15.8029 11.7155 15.4939C11.8872 15.1849 12.0131 14.8416 12.0818 14.4639C12.2649 13.5484 12.1275 12.8389 11.6812 12.3239C11.2349 11.8089 10.5254 11.5571 9.55261 11.5571H6.31393L4.81476 19.2819Z" fill="#000004"/>
<path fill-rule="evenodd" clip-rule="evenodd" d="M13.3177 9.50867H14.9886L14.588 11.5572H16.0757C17.0142 11.5572 17.655 11.7174 18.0098 12.0493C18.3646 12.3811 18.4676 12.9076 18.3302 13.64L17.6321 17.2334H15.9384L16.6022 13.8116C16.6823 13.4225 16.6479 13.1593 16.5221 13.022C16.3962 12.8847 16.1101 12.8046 15.6866 12.8046H14.3477L13.4894 17.2334H11.8185L13.3177 9.50867Z" fill="#000004"/>
<path fill-rule="evenodd" clip-rule="evenodd" d="M22.0381 12.7816C22.679 12.7816 23.1024 12.8961 23.3199 13.1364C23.5373 13.3767 23.5831 13.7773 23.4686 14.3495C23.3542 14.9446 23.1253 15.3795 22.7934 15.6312C22.4615 15.883 21.958 16.0089 21.2828 16.0089H20.2643L20.8937 12.7816H22.0381ZM17.9411 19.2819H19.6234L20.024 17.2334H21.4659C22.1068 17.2334 22.6218 17.1647 23.0338 17.0274C23.4457 16.8901 23.812 16.6726 24.1553 16.3522C24.4414 16.089 24.6703 15.8029 24.8419 15.4939C25.0136 15.1849 25.1395 14.8416 25.2081 14.4639C25.3912 13.5484 25.2539 12.8389 24.8076 12.3239C24.3613 11.8089 23.6517 11.5571 22.679 11.5571H19.4403L17.9411 19.2819Z" fill="#000004"/>
<defs>
<radialGradient id="paint0_radial_16_19" cx="0" cy="0" r="1" gradientUnits="userSpaceOnUse" gradientTransform="translate(9.14655 9.97418) scale(41.5485 21.8454)">
<stop stop-color="white"/>
<stop offset="0.5" stop-color="#4C6B97"/>
<stop offset="1" stop-color="#231F20"/>
</radialGradient>
</defs>
</svg>
